<svg width="500" height="500" viewBox="0 0 500 500" fill="none" xmlns="http://www.w3.org/2000/svg">
<path d="M437.5 156.875L390.625 129.521M437.5 156.875V203.75M437.5 156.875L390.625 184.229M62.5 156.875L109.375 129.521M62.5 156.875L109.375 184.229M62.5 156.875V203.75M250 266.25L296.875 238.896M250 266.25L203.125 238.896M250 266.25V313.125M250 453.75L296.875 426.396M250 453.75V406.875M250 453.75L203.125 426.396M203.125 74.8333L250 47.5L296.875 74.8542M437.5 297.5V344.375L390.625 371.729M109.375 371.729L62.5 344.375V297.5" stroke="white" stroke-width="10" stroke-linecap="round" stroke-linejoin="round"/>
</svg>
